<mxfile host="Electron" agent="Mozilla/5.0 (X11; Linux x86_64) AppleWebKit/537.36 (KHTML, like Gecko) draw.io/24.7.17 Chrome/128.0.6613.186 Electron/32.2.2 Safari/537.36" version="24.7.17">
  <diagram name="Page-1" id="fB3Vg9nGYAfTrFlwN_HR">
    <mxGraphModel dx="1114" dy="507" grid="1" gridSize="10" guides="1" tooltips="1" connect="1" arrows="1" fold="1" page="1" pageScale="1" pageWidth="850" pageHeight="1100" math="0" shadow="0">
      <root>
        <mxCell id="0" />
        <mxCell id="1" parent="0" />
        <mxCell id="AuNbkqGXITy0RywER_eL-1" value="" style="whiteSpace=wrap;html=1;fillColor=#F0FFF0;strokeColor=#000000;movable=1;resizable=1;rotatable=1;deletable=1;editable=1;locked=0;connectable=1;" vertex="1" parent="1">
          <mxGeometry x="215" y="650" width="170" height="150" as="geometry" />
        </mxCell>
        <mxCell id="AuNbkqGXITy0RywER_eL-2" value="" style="whiteSpace=wrap;html=1;fillColor=#FFE4E1;strokeColor=#000000;movable=1;resizable=1;rotatable=1;deletable=1;editable=1;locked=0;connectable=1;" vertex="1" parent="1">
          <mxGeometry x="25" y="570" width="360" height="80" as="geometry" />
        </mxCell>
        <mxCell id="AuNbkqGXITy0RywER_eL-3" value="&lt;font size=&quot;1&quot; style=&quot;&quot;&gt;&lt;b style=&quot;font-size: 14px;&quot;&gt;Cooking&lt;/b&gt;&lt;/font&gt;" style="text;html=1;align=center;verticalAlign=middle;whiteSpace=wrap;rounded=0;movable=1;resizable=1;rotatable=1;deletable=1;editable=1;locked=0;connectable=1;" vertex="1" parent="1">
          <mxGeometry x="155" y="570" width="100" height="30" as="geometry" />
        </mxCell>
        <mxCell id="AuNbkqGXITy0RywER_eL-4" value="" style="whiteSpace=wrap;html=1;fillColor=#e1d5e7;strokeColor=#9673a6;movable=1;resizable=1;rotatable=1;deletable=1;editable=1;locked=0;connectable=1;" vertex="1" parent="1">
          <mxGeometry x="285" y="650" width="100" height="100" as="geometry" />
        </mxCell>
        <mxCell id="AuNbkqGXITy0RywER_eL-5" value="&lt;font size=&quot;1&quot; style=&quot;&quot;&gt;&lt;b style=&quot;font-size: 14px;&quot;&gt;Dishwashing&lt;/b&gt;&lt;/font&gt;" style="text;html=1;align=center;verticalAlign=middle;whiteSpace=wrap;rounded=0;movable=1;resizable=1;rotatable=1;deletable=1;editable=1;locked=0;connectable=1;" vertex="1" parent="1">
          <mxGeometry x="285" y="650" width="100" height="30" as="geometry" />
        </mxCell>
        <mxCell id="AuNbkqGXITy0RywER_eL-6" value="" style="rounded=0;whiteSpace=wrap;html=1;fillColor=#000000;" vertex="1" parent="1">
          <mxGeometry x="185" y="650" width="30" height="190" as="geometry" />
        </mxCell>
        <mxCell id="AuNbkqGXITy0RywER_eL-7" value="" style="whiteSpace=wrap;html=1;fillColor=#FFE4B5;strokeColor=#000000;movable=1;resizable=1;rotatable=1;deletable=1;editable=1;locked=0;connectable=1;" vertex="1" parent="1">
          <mxGeometry x="25" y="840" width="260" height="100" as="geometry" />
        </mxCell>
        <mxCell id="AuNbkqGXITy0RywER_eL-8" value="&lt;div&gt;&lt;br&gt;&lt;/div&gt;" style="whiteSpace=wrap;html=1;fillColor=#d5e8d4;strokeColor=#82b366;movable=1;resizable=1;rotatable=1;deletable=1;editable=1;locked=0;connectable=1;" vertex="1" parent="1">
          <mxGeometry x="285" y="840" width="100" height="100" as="geometry" />
        </mxCell>
        <mxCell id="AuNbkqGXITy0RywER_eL-9" value="" style="whiteSpace=wrap;html=1;fillColor=#F5F5DC;strokeColor=#000000;movable=1;resizable=1;rotatable=1;deletable=1;editable=1;locked=0;connectable=1;" vertex="1" parent="1">
          <mxGeometry x="215" y="800" width="170" height="40" as="geometry" />
        </mxCell>
        <mxCell id="AuNbkqGXITy0RywER_eL-10" value="&lt;font size=&quot;1&quot; style=&quot;&quot;&gt;&lt;b style=&quot;font-size: 14px;&quot;&gt;Storage&lt;/b&gt;&lt;/font&gt;" style="text;html=1;align=center;verticalAlign=middle;whiteSpace=wrap;rounded=0;movable=1;resizable=1;rotatable=1;deletable=1;editable=1;locked=0;connectable=1;" vertex="1" parent="1">
          <mxGeometry x="105" y="840" width="100" height="30" as="geometry" />
        </mxCell>
        <mxCell id="AuNbkqGXITy0RywER_eL-11" value="&lt;font size=&quot;1&quot; style=&quot;&quot;&gt;&lt;b style=&quot;font-size: 14px;&quot;&gt;Cutting&lt;/b&gt;&lt;/font&gt;" style="text;html=1;align=center;verticalAlign=middle;whiteSpace=wrap;rounded=0;movable=1;resizable=1;rotatable=1;deletable=1;editable=1;locked=0;connectable=1;" vertex="1" parent="1">
          <mxGeometry x="285" y="840" width="100" height="30" as="geometry" />
        </mxCell>
        <mxCell id="AuNbkqGXITy0RywER_eL-12" value="&lt;font size=&quot;1&quot; style=&quot;&quot;&gt;&lt;b style=&quot;font-size: 14px;&quot;&gt;Mixing&lt;/b&gt;&lt;/font&gt;" style="text;html=1;align=center;verticalAlign=middle;whiteSpace=wrap;rounded=0;movable=1;resizable=1;rotatable=1;deletable=1;editable=1;locked=0;connectable=1;" vertex="1" parent="1">
          <mxGeometry x="245" y="810" width="100" height="30" as="geometry" />
        </mxCell>
        <mxCell id="AuNbkqGXITy0RywER_eL-13" value="&lt;font style=&quot;font-size: 12px;&quot;&gt;&lt;b style=&quot;font-size: 12px;&quot;&gt;Preparation&lt;/b&gt;&lt;/font&gt;" style="text;html=1;align=center;verticalAlign=middle;whiteSpace=wrap;rounded=0;fontSize=12;movable=1;resizable=1;rotatable=1;deletable=1;editable=1;locked=0;connectable=1;" vertex="1" parent="1">
          <mxGeometry x="255" y="770" width="80" height="30" as="geometry" />
        </mxCell>
        <mxCell id="AuNbkqGXITy0RywER_eL-14" value="" style="group" vertex="1" connectable="0" parent="1">
          <mxGeometry x="25" y="650" width="160" height="190" as="geometry" />
        </mxCell>
        <mxCell id="AuNbkqGXITy0RywER_eL-15" value="" style="whiteSpace=wrap;html=1;fillColor=#E6E6FA;strokeColor=#000000;movable=1;resizable=1;rotatable=1;deletable=1;editable=1;locked=0;connectable=1;" vertex="1" parent="AuNbkqGXITy0RywER_eL-14">
          <mxGeometry width="160" height="190" as="geometry" />
        </mxCell>
        <mxCell id="AuNbkqGXITy0RywER_eL-16" value="&lt;font size=&quot;1&quot; style=&quot;&quot;&gt;&lt;b style=&quot;font-size: 14px;&quot;&gt;Serving&lt;/b&gt;&lt;/font&gt;" style="text;html=1;align=center;verticalAlign=middle;whiteSpace=wrap;rounded=0;movable=1;resizable=1;rotatable=1;deletable=1;editable=1;locked=0;connectable=1;" vertex="1" parent="AuNbkqGXITy0RywER_eL-14">
          <mxGeometry x="30" width="100" height="47.5" as="geometry" />
        </mxCell>
        <mxCell id="AuNbkqGXITy0RywER_eL-17" value="" style="shape=image;verticalLabelPosition=bottom;labelBackgroundColor=default;verticalAlign=top;aspect=fixed;imageAspect=0;image=data:image/png,iVBORw0KGgoAAAANSUhEUgAAAgAAAAIACAYAAAD0eNT6AAAAAXNSR0IArs4c6QAAIABJREFUeAHt3QmQNV1ZGOD3hx9RNhEXFDUV1IgRsIzRco9KUJPSGMUNjPsWNUlVKJdoFlOKuAQqbhU1oOJGRY0IEqWUxKAQU7jE3bhguVAUomJQUX5kM/N+/1z++eabe+e9fU93n+5+TtVXM3Pv6fe85+mz9Ddzb98IhQABAgQIECBAgAABAgQIECBAgAABAgQIECBAgAABAgQIECBAgAABAgQIECBAgAABAgQIECBAgAABAgQIECBAgAABAgQIECBAgAABAgQIECBAgAABAgQIECBAgAABAgQIECBAgAABAgQIECBAgAABAgQIECBAgAABAgQIECBAgAABAgQIECBAgAABAgQIECBAgAABAgQIECBAgAABAgQIECBAgAABAgQIECBAgAABAgQIECBAgAABAgQIECBAgAABAgQIECBAgAABAgQIECBAgAABAgQIECBAgAABAgQIECBAgAABAgQIECBAgAABAgQIECBAgAABAgQIECBAgAABAgQIECBAgAABAgQIECBAgAABAgQIECBAgAABAgQIECBAgAABAgQIECBAgAABAgQIECBAgAABAgQIECBAgAABAgQIECBAgAABAgQIECBAgAABAgQIECBAgAABAgQIECBAgAABAgQIECBAgAABAgQIECBAgAABAgQIECBAgAABAgQIECBAgAABAgQIECBAgAABAgQIECBAgAABAgQIECBAgAABAgQIECBAgAABAgQIECBAgAABAgQIECBAgAABAgQIECBAgAABAgQIECBAgAABAgQIECBAgAABAgQIECBAgAABAgQIECBAgAABAgQIECBAgAABAgQIECBAgAABAgQIECBAgAABAgQIECBAgAABAgQIECBAgAABAgQIECBAgAABAgQIECBAgAABAgQIECBAgAABAgQIECBAgAABAgQIECBAgAABAgQIECBAgAABAgQIECBAgAABAgQIECBAgAABAgQIECBAgAABAgQIECBAgAABAgQIECBAgAABAgQIECBAgAABAgQIECBAgAABAgQIECBAgAABAgQIECBAgAABAgQIECBAgAABAgQIECBAgAABAgQIECBAgAABAgQIECBAgAABAgQIECBAgAABAgQIECBAgAABAgQIECBAgAABAgQIECBAgAABAgQIECBAgAABAgQIECBAgAABAgQIECBAgAABAgQIECBAgAABAgQIECBAgAABAgQIECBAgAABAgQIECBAgAABAgQIECBAgAABAgQIECBAgAABAgQIECBAgAABAgQIECBAgAABAgQIECBAgAABAgQIECBAgAABAgQIECBAgAABAgQIECBAgMAUAt8bEXP8m6Jv2iBAgAABAnMJzLG3Zpvl8tcRMce/l0bEr0bE/4iI74mIJ0bEF0TEJ0bEIyPiYRHxZhFxW7knKhIgQIAAgXEFck/KvSn3qNyrcs/KvSv3sNzLck/LvS33uDn21myzXOZKsNruqyPihRHxnIh4ckR8UUQ8KiLeJSLuXe6ligQIECBAoCaQe0vuMbnX5J6Te0/uQbkX5Z5U3b/mqlfr5QI6ch3giyPiuRHxbRHxJWdXXh9z9ieNd4qIu5UFVCRAgACBrQnkHpF7Re4ZuXfkHpJ7Se4p1+07vT9fPpe9d2Rofn8ZET8dEU+KiM+LiPeNiPuWVVQkQIAAgbUI5Nqfe0DuBbkn5N6Qe8TQ/aX348rnrfeOtMzvdWd/r/ntiHhaRHxpRHxERDywLKUiAQIECPQukGt6ru25xudan2t+rv0t95LeY5XPUe8dmSK/F0TEUyLiM89/JVTGU5EAAQIEZhXIX+Pn2p1reK7lU+wZvbdRPiG9d2SO/P44In7o7FdEXxgR7x0Rb1DWVJEAAQIExhLItTjX5Fybc43OtXqOPaL3Nsv+vXekh/zuOH9xSP5K6T28wLA8tlQkQIDAKQL5Qr1cc3PtzRfo5Vrcw57Qew5l89470mN+edX51Ij4pIh4i7K0igQIECBwnUCuqbm25hrrf/jDLniuM3798z1usEvKKV9c8nMR8RXnrzK9++tlfUOAAAEC1wnkmpmv0M81NNfSrb1gb4z97jrz1z8/RuNbjvmyiPj+iHiMtx2+foz5hgABAhcF8m15uUbmWplr5pb3jDH6ftH64PdjNC7mnQP6lecvVMlfZ93/4FnwJAECBNYtkGtgroX54r1cG+0T4xmUR5KTMN5JuGj7VxHxrLNbSX56RDygfHZUJECAwHIFcq3LNS/XvlwDL66Jvh/PozxinITxTsI+27yX9LPPbjn52RHx5uUzpSIBAgT6F8g1Lde2XOOWcN/8fev0kh8vj5Ild3INub8qIp5+fueq28tnTUUCBAj0I5BrV959L9eyXNPWsDYvuQ/lkbHkTq4t95ecfcLhE85eGPPO5bOnIgECBOYTyLUq16xcu9a2Hi+5P+URseROrjn3/LCKz4mINy6fSRUJECAwvkCuSbk25Rq15jV4yX0rj4Ild3ILueedr/KGGI+MiNvKZ1VFAgQItBPItSfXoFyL3I2v/wuf8pnfwia6lj7+ZkT8c/cXKI9tFQkQOE0g36+fa06uPWtZR7fQj/JZ3wLG2vr4Z2f3Ffi6iHiH8llWkQABAnWBXFtyjcm1Zm3r5xb6Uz7TW8BYax/zlpk/HBEf4s8D5fGuIgECVwvkr/lzLck1xe14l33hc/UZvuLRtW6OW+vXr0fE5569IvfeV5xjDxEgQGCfQK4ZuXbkGrK1dXOt/d13rm95fK0AW+3Xn0bEV/uUwlvGuQcIELhZID91L9eKXDO2ul6utd83n+kDP60VYOv9ekVEfH1EvPWBc+8pAgS2J5BrQq4NuUZsfZ1ca//Lo3qtAPp15+TO+2//54h4cHlEqEiAwBoFcg3ItcA9+dd/4VMevzbK9Q+GPMd5T+7viIiHlEeGigQIrEEg53zOfffl38Zan+t9ubgA2M6gyHP92oj43oh4eHmEqEiAwBIFco7nXM85b53flkF5vBoY2xoYu/Odb/N5mt8IlOeJigSWIpD/48+57a1821zbc40vl92G4Os2B8trzv8u+KDyiFGRAIEeBXIO59/4c05bz7dtUB6fBsq2B8ru/P9lRDzehw+V542KBHoRyA/nybmbc3g3n33dtkV5bM41UN41Ij7y7FaTjz1/S8ozI+KXI+LlBvGsk/il5+fknuURpCIBAnMI5BzN9TPn7FzruHbv3LNy78o9LN9emeck97bc4+byKY/HHhN807PbUb57RHzM2VXtF0bEf4qIZ0XE//Xe1ckG1O9FxCdFxN3KI0lFAgSmEMg5mXMz5+hc6/eW2s37JeTek3tQ7kW5J+XelHtU7lWHylxOh3K66bnuE7wp2zt/eGBEvFdEPPrsPa1fcnazmydHxP/xNpdRFoNfOv8Y0CtOg4cIEJhYID+SN+fkXOv2WtvNt0jmHpJ7Se4pubfkHpN7zSllLq9yzt0nWO5JxBtFxPtFxBdExA9ExItMlGYLxfdHxNsccS5UJUCgnUDOvZyDc63Xa2s394bcI3KvyD0j944xylxu5b50n2C5J1dXzNtefvTZh+Q8ISKe508IJy0gf3Hm90VnLzi6x9XUHiVAoLFAzrWcczn35lqrl95u/go/1/7cA3IvmPL26HPZlYdh9wmWe1KrePvZizXeLSI+LyK+KyJ+y8Q6emHJv4c9osatFgECAwVyjuVcm2uNXmq7uabn2p5rfK71uebPVeYyLPe3+wTLPRle8QER8Q8j4ssi4se8naa84ORdxtw/YPi4cySBqwRyTuXcmmttXlK7+dbHXLNz7c41PNfynspclmWD7hMs96Rdxfx70EdExLefXUX+kYl4cCHKt21+/sxX2e3OvEgE5hPI/6nmXPJW6MMXP7km59qca/RYf7tvNQq631+7T7DVmRgYJ99y8/4R8cSI+G0XA3svBn71/FWzA5kdRmDTAvmK85xDc63Hvbeba2+uwbkWL+mtyXO5lidT9wmWezJNxYeevd3w30TEz7jX9i2LVX7oSL7Q5g2nORVaIbB4gZwrOWd8YM/NFz/5OQa5xuZam2vuUkv3+2v3CXZ85vPVpJ97/jcon7F91wT+jTOT9+74vEmNQA8COUdyrsy1BvfWbq6h+ff8XFOnfKX+mGNhLuNyn7pPsNyTeSve7/zmEf/l7FaQf2ZS3/gfjd8GzDsmtd6ngP/133XRk2tlrpl5451cQ9dWut9fu09wgSMi37v7IWd3kfrmiPjTjV8M+G3AAgewlEcT8L/+O9fEXBtzjVz7PUW631+7T3C0qThN4HtHxGedvWL15zd8IZB/38wX8PT+it1pRoRWtiiQYz/nwJb/1p9rYK6FuSZupXS/v3af4IpGSr7S9zsj4o6NXgz8pncKrGg060pVIOd9jv251to52821Lte8NNhimcu+bN19guWeLKdifoJU3oN6i28rzA/d+NcLeyvPckaWTHsSyLer5VjPMT/XOjtXu7m25Rp33afl9XS+xshlLv9yX7pPsNyT5VW8LSI+9Oxzo58REa/Z2CLxP91FcHkDVsZlgbybX47xudbXOdrNNSzXslzTcm1T5jv/Zfs5Bkq2qdws8LYR8biI+IMNLRp/HBEffjODnwgsXiDHdI7tudbWqdvNNSvXrlzDlJsFpj4Xu/ZuzuLAT7sDpv56IKVNP5Wviv24iHjOhhaQr4+Ie276rOv8GgRyDOdYnnotnau9XKNyrVr7K/lPGZtznZtyzt0nWO7J+iq+89mHW3zDRt5K+Atn7wd+yPpOoR5tRCDHbo7hudbTqdrNtzXnmpRrk3K9wFTn5XI712d2XuPygVP9XE5QxbjP+S0xX7byBSY/8/zTnW8CCxPIMZtjd6q1c452cu3J2/LmWqTUBeY4V9lmuXSfYLkn6694/7Nftz1+A4vNUyPiXus/nXq4cIEcozlW51pDp2g3L2xyzcm1RzleYIpzdFUb5UyvOniKx8oJqniLwFtExNeu/H4Cv3j2/uEH39JzDxDoQyDHZo7RKdbKOdrI9+/nGpNrjTJcYI5zl22WS/cJlnuyvYpvExHfcvZe41etdCH6k4h45PZOqx53LpBjMsfmXGvnmO3mWpJrSq4tyukCY56rQ7HLmR8KMuZz5QRVvFbg7SLiu1Z6m9F8b3HeUEQh0INAjsU13rMjb1Gca0iuJUo7gTH30EOxyz04FGTM58oJqlgWyFfm/kBE5Gdpj3nu5oidnxjmdQHloaBiY4EcezkG5xj7Y7aZa0WuGV7V33jAnIcb89wdil3uzaEgYz5XTlDFowXeLSJ+ZIWLldcFHD0UHNBAYK1/7881ItcKZTyBMffQQ7HLPToUZMznygmqOFjgfVZ4QyGvCxg8HBw4QGCNf+/PG/jk2qCMLzDmHnoodrlnh4KM+Vw5QRVPFshF7Pkr+o1A/g32sSerCEDgsECOsTX9vT/XAC+qPXzOWz875h56KHa5H4eCjPlcOUEVmwl8QkT84YouBL7Rpwo2GxsC3SWQn+KXY2vM9W/K2Dnnc+4r0wtMeZ4vtlXu6cWDpvy+nKCKTQUeEBHfvqLF7Ye8OLDp+Nh6sHyxX46pKdfCMdvKuZ5zXplHYMxzeyh2ubeHgoz5XDlBFUcReEREvGAlC93PuGHJKGNka0Hzpjc5lsZc96aKnXM757gyr8BU5/tyO+VeXz5wqp/LCao4msAbRsRXruRGQr/jw4RGGydbCJwf5pNjaKr1b6x28kY+OadzbivzC4x1nq+LW+75dYHGer6coIqjCzx8JS8SzHcIvP/oWhpYm0COmTXc2S9f5JdzWelHYKz987q4ZYHrAo31fDlBFScRyBc+/YuI+POF/y/olRHx8ZOIaWQNAjlWcsyMtc5NEffl53M357DSl8AU5/+qNsoKVx08xWPlBFWcVOBtz24O8syFL4h5d7MvmlRNY0sUyDGy9Ltm5lzNOav0KTDFXnpVG2WNqw6e4rFygirOIvCxEfEHC78QeOIschpdgkCOjSnWubHayLmZc1TpW2Cs839d3LLKdYHGer6coIqzCeRngD9p4f9L+qaIuG02QQ33JpBjIcfEWOva2HHzNxY5J3NuKv0LjD0e9sUvy+wLMPbj5QRVnF0gXyT16wteNL8jIu4+u6IE5hbIMZBjYey1baz4OQe9yHXuUXRc+2ONhevilrO8LtBYz5cTVLELgXuebaKPW/CtUb8vIu7RhaQk5hDIc59jYKz1bMy4eTvinHs5B5VlCYw5Lg7FLisdCjLmc+UEVexKIG8ustTbCecLpiyiXQ2nSZLJc77UF7bmXHNDn0mGySiNjLmHHopd7syhIGM+V05Qxe4EHhQRz1vo/6ae7dbB3Y2nMRPKW/vmOR9zLRsrds6xnGvKcgXGGhvXxS2LXRdorOfLCarYpcDtEbHUV1I/NyLu26WqpFoK5DnOcz3WGjZm3JxbOceUZQuMOUYOxS6rHQoy5nPlBFXsWuBRZx/N+2cLXGR/OiLepGtZyZ0ikOc2z/GYa9gYsXMu5ZxS1iEwxhipxCzrVYKNUaecoIrdC7xDRPzSAhfb/OAXvwnofngdnWCe0yV+qE/OoZxLynoExtg7KzHLgpVgY9QpJ6jiIgTeaKEfM/yTEZG5K+sQyHOZ53SMNWvMmPmxvcbhOsbgxV6MOWYOxb6Yw8HvDwUZ87mDSXlysQKfERF3LGwBfpa3CC52vF1MPN/ql+dyzHWrdeycKzlnlHUKtB4v1XhlzWrA1vXKCaq4OIF3jYjfXthC/F/dLGhx4+xiwnmTnzyHrdepMePlHMm5oqxXYMzxcyh2WfRQkDGfKyeo4iIF3jginr6wBfkpbhu8yLGWt/fNczfmetU6ds6NnCPKugVaj5tqvLJqNWDreuUEVVy0wBdGxKsXtDh/w6K1t5l8nrPW69NY8XIu5JxQtiEw1ji6Lm5Z97pAYz1fTlDFxQvk/ctfvKBF+vGLF99OB/JcjbVGtY6bc8C9/LczNrOnrcdQNV5ZuRqwdb1ygiquQuCBC3t19r9ahfq6O5HnqPW6NFa8fGdCzgFlWwJjjafr4paVrws01vPlBFVcjUDek/1pC1q0P3c18uvrSJ6bsdam1nFzzPsMivWNwUqPWo+larxKbjfqVAO2rldOUMVVCeSrtZ+8kMU7P3v9k1alv47O5DnJc9N6TRojXo51H0W9jnE3pBdjjKlKzHKulWBj1CknqOIqBb5yIQt4fhTrh63yDCyzU3ku8pyMsSa1jpljXNm2QOsxVY1XVq8GbF2vnKCKqxV47EL+J/fyiHiX1Z6F5XQsz0Gei9ZrUet4+duJHNsKgdZjqxqvLF8N2LpeOUEVVy2Qv85dwtsEXxgRb7XqM9F359I+z0Hrdah1vBzL/mzU91iaMrvW46sar9zHasDW9coJqrh6gfy17isWsLj/rPu1zzIW8x75ad96DWodL8ewPxfNMkS6bbT1GKvGK4NUA7auV05QxU0IvG9EvGwBi/wPuFvgpOMx7/KX5q3Xn9bxcuzmGFYIXBRoPc6q8S7mcPD7asDW9Q4m5clNCjx8ITcM+qpNnp15Op3Wrdee1vHyBj85dhUClwVaj7VqvMt57P25GrB1vb0JeWLTAg+OiBcsYNH/tE2fpWk6n8at153W8XKs5phVCFwl0Hq8VeNdlcuVj1UDtq53ZTIeJBARbxERP9/54v+qiPhAZ2s0gbRN49brTst4OUZzrCoE9gm0HG/HxNqXzy2PHxO0Zd1bEvEAgQsC94uI53S+AfxJRLzjhZx920YgTdO25XrTOlaOzRyjCoFDAq3HXTXeoZxueq4asHW9m5LwA4ErBPL2qb1/pPBvRcQDrsjdQ8ME0jJNW683LePlmHRr32Hnd2tHtRx3x8QqOx8TtGXdcoIqblogb6P6rZ1vCD8REW+w6bPUpvNpmJYt15nWsXIsurVvm/O9hSitx181Xtm2GrB1vXKCKhKIiG/sfGP4JmfpZIE0bL3OtIyXY1AhcIxAy/F3TKxyjscEbVm3nKCKBM7fe//tnW8Qj3amBgukXcv1pXWsHHt5TwKFwDECrcdhNV45x2rA1vXKCapI4FzgbhHxvR1vFHmf+oc4W0cLpFnP9/jPMZdjTyFwrEDrfbMar5xnNWDreuUEVSRwQeD2iHhmxxcBv+x2wRfO1vXf5m1+06z1+tIqXo61HHMKgSECrcbhsXHKuR4buFX9coIqErgkkK/A/u8dbxrfdilfP+4XSKtWa0rrODnGvNp//7nzzPUCrcdkNd71mZ3XqAZsXa+coIoErhC4V0Q8r+PN41OuyNlDNwukUet1pVW8HFs5xhQCpwi0Go/HxinnfGzgVvXLCapIYI9A3oil10+J+8uIeOievD18p00atVpPWsbJMeUmP0ZpC4GW4/KYWOXcjwnasm45QRUJHBB404j4lU43kl+PiHsfyH2rT6VJ2rRcT1rFyrGUY0oh0EKg1bg8Nk4592MDt6pfTlBFAtcIvGVE/G6nG8r3XJP7Fp9Ok1brSMs4OYZyLCkEWgm0HJ/HxCrnf0zQlnXLCapIoCDwtyMiP5O95RhtFeuzC/lvpUpatHJtGSfHTo4hhUBLgZZj9JhY5T4cE7Rl3XKCKhIoCjyi00+QuyMi3rXYhzVXS4O0aLmOtIiVnzqYY0ch0FqgxfgcEqPcjyHBWxxTTlBFAkcIfGqHG0zOl/yAmy2/qjz73uuH/OSYUQiMIdBirxwSo9yXIcFbHFNOUEUCRwp8eacXAVu+l3yvn+WQY0UhMJZAi71ySIxyf4YEb3FMOUEVCQwQeGqHFwGvi4gPGtCXpR+Sfc6+t1g3WsbIMaIQGFOg5Xg9Jla5T8cEbVm3nKCKBAYI5EfLPrfDTef3IuK+A/qz1EOyr9nnlmtHi1g5NnyE81JH1XLybjFWh8QoCw0J3uKYcoIqEhgo8ICI+M0ON58nDezPEg/LvrZYL1rGyDGRY0MhMLZAy3F7TKxyv44J2rJuOUEVCZwg8PYR8dION6F/cEKflnJo9rHlmtEiVo6FHBMKgSkEWozZITHKfRsSvMUx5QRVJHCiwCMj4rWdbUYvioj7n9ivng/PvmUfW6wVrWLkGMixoBCYSqDV2D02Trl/xwZuVb+coIoEGgh8SWebUc6j72rQr15DZN9arRWt4uQYUAhMKdBq7B4bp9zHYwO3ql9OUEUCDQRuO7sZzzM63JT+cYO+9RYi+9RqnWgVJ899jgGFwJQCrcbvsXHKfTw2cKv65QRVJNBIID/hrbeb0bwkIt6sUf96CJN9yT61WidaxMlz7tP9ehgd28uhxfgdEqMsPSR4i2PKCapIoKHAwyLiLzrboL6vYf/mDpV9abE+tIqR5zrPuUJgDoFW4/jYOOW+Hhu4Vf1ygioSaCzwmM42qZxTH9e4j3OEyz60Wh9axclzrRCYS6DVOD42Trm/xwZuVb+coIoERhD4us42q/y1+ZJ/TZ259/ar/zzHCoE5BVrtl8fGKff52MCt6pcTVJHACAK3R8TzOrsI+NoR+jlVyMy91drQIk6e2zzHCoE5BVqM5SExyn0eErzFMeUEVSQwksBbRcQfdrRxvXqhf6/Ov7Fn7i3WhRYx8pzmuVUIzC3QYjwPiVHu95DgLY4pJ6gigREFPryjjSvn1XNG7OtYoTPnFmtCqxh5ThUCPQi0GtPHxin3/djAreqXE1SRwMgC39LZBvbokfvbMnzm2mpNaBEnz6VCoBeBFmN6SIxy/4cEb3FMOUEVCYwscK/OPjQob6F7n5H73CJ85tjT7X7zQ37yXCoEehFosVcOiVHu/5DgLY4pJ6gigQkE3qOzv2N/zQR9PrWJzLHFWtAiRr4GIc+hQqAngRZje0iMssGQ4C2OKSeoIoGJBP5tRxvaqyLiIRP1e0gzmVvm2GItaBEjz51CoDeBFmN7SIyyw5DgLY4pJ6gigYkE7h4RP9XRpvbsifo9pJnMrcU60CJGnrM8dwqB3gRajO8hMcoOQ4K3OKacoIoEJhR4u4j48442t0dN2PdqU5lTizWgRYw8V3nOFAI9CrQY40NilC2GBG9xTDlBFQlMLPBpHW1wv9/ZC9vyRXaZU4s1oEWMPFcKgV4FWozxITHKHkOCtzimnKCKBGYQeHpHm9zjZuj/viYzlxbzv0WMPEcKgZ4FWozzITHKJkOCtzimnKCKBGYQeFBE/Gknm90rOrmzXd5dL3NpMf9PjZHnJs+RQqBngVPH+dDjyyZDGzj1uHKCKhKYSeBzOtnscq5900wGF5vNHE6d962Oz3OjEOhdoNV4PzZO2eXYwK3qlxNUkcBMArd19K6AfMvdnC92y7Z7edtfvuo/z41CoHeBVvvlsXHKLscGblW/nKCKBGYUeOeI+KtO/uf73TM6ZNut5v4pcfJc5DlRCCxB4JSxfsqxZZtTGjnl2HKCKhKYWeDLO9n8XjvTpwXmp/1l26fM91bH5rlQCCxFoNW4PzZO2efYwK3qlxNUkcDMAvfs6LMCnjGDRbbZat6fEifv9Z/nQiGwFIFTxvspx5Z9TmnklGPLCapIoAOBD4iI13WyEb7nhB7Z1inzvNWxaZ/nQCGwJIFW4//YOGWjYwO3ql9OUEUCnQh8ayeb4Y9P6JFttZrzp8RJe4XA0gROGfOnHFt2OqWRU44tJ6gigU4E3iQi/rCTDfGRE5hkG6fM8VbHpnnaKwSWJtBqDhwbp+x0bOBW9csJqkigI4HP6GRT/JkJTLKNVvP9lDhprhBYosAp4/6UY8tWpzRyyrHlBFUk0JHA3SLiFzrZGD9qRJeMfcr8bnVsWqe5QmCJAq3mwbFxylbHBm5Vv5ygigQ6E8gXo7WaB6fE+bWRNsfccDP2Kbm1OtYL/zob/NI5SqDVPDg2TjnJYwO3ql9OUEUCHQo8rZMN8uNHsMmYreb5KXHSWCGwZIFTxv8px5bNTmnklGPLCapIoEOBvDXuKzvYKH9uBJuMecrcbnGvtD//AAAWtElEQVRs2s556+MRWIXcoECLuTAkRpl6SPAWx5QTVJFApwJf08FGmXPxgxr6ZKwW8/vUGGmrEFi6wKnzYOjxZbehDZx6XDlBFQl0KnC/Tt4W+CMNfTLWqXP71OPzbX9pqxBYusCpc2Ho8WW3oQ2celw5QRUJdCzwWR1smHmXvIc2MMoYPdztME0VAmsQOHWfHHp82W5oA6ceV05QRQIdC+Qr5n+xg4uApzQwyhinzutTj09Lb/trcDKF6ELg1Pkw9Phy54c2cOpx5QRVJNC5QA93zMuPyX3QCU55bA8fezzFHQ5PYHIogaMETt0nhx5fTnJoA6ceV05QRQILEHheB/97/uoTnPLYU+f0qcenoUJgTQKnzomhx5cNhzZw6nHlBFUksACBv9/BBvqyiLjvAKs8Jo89dU6fenwaKgTWJHDqnBh6fNlwaAOnHldOUEUCCxF4bgeb6GMHWOUxp87nU49PO4XA2gROnRdDjy87Dm3g1OPKCapIYCECj+hgI/39iLj9CK+sm8ecOp9PPT7tFAJrEzh1Xgw9vuw4tIFTjysnqCKBBQn8ZAeb6Scc4ZV1T53Lpx6fZgqBNQqcOjeGHl+2HNrAqceVE1SRwIIEeriT3s8f4ZV1T53Lpx7f8k6GR3RdVQKjC5w6N4YeX+7Y0AZOPa6coIoEFibQw28B3qtg9p4dbP7+9184UaosVuDUfXLo8WWwoQ2celw5QRUJLEzgAzvYWL+1YJZ1Tp3Hpx6fVgqBtQqcOj+GHl/2HNrAqceVE1SRwAIFfmLmzfXlEXGfA275XNY5dR6fcnwaKQTWLHDK/Djl2LLpKY2ccmw5QRUJLFDgg2feXHNufuYBt3zulPnb4tg0UgisWaDFPBkSo2w6JHiLY8oJqkhgoQK/MvMm+/wDbvlci3k8NEbaKATWLjB0fpx6XNn11IaGHl9OUEUCCxX49Jk32ZybD7/CLh8bOm9bHZc2CoG1C7SaL8fGKbseG7hV/XKCKhJYqMA9IyI/277VnBkS5+uvsMvHhsRqdUyapI1CYO0CrebMsXHKrscGblW/nKCKBBYs8O9n3mz/5NJmmxtvPtZqHg+JkyYKgS0IDJkfLY4p27ZobEiMcoIqEliwwJtHxB0zb7iPueCX3w+Zr62OSYs0UQhsQaDVvDk2Ttn22MCt6pcTVJHAwgWePPOm++MX/PL7VnN4SJy0UAhsRWDIHGlxTNm3RWNDYpQTVJHAwgUeOvOm+7qIePvzf/n9kPna6pi0UAhsRaDVvDk2Ttn32MCt6pcTVJHACgR+dOaN9/ERkf9azd8hcdJAIbAlgSHzpMUxZeMWjQ2JUU5QRQIrEPjQmTffF0dE/hsyV1sdkwYKgS0JtJo7x8YpGx8buFX9coIqEliJwG/NvAG3mrtD4mTfFQJbExgyV1ocU3Zu0diQGOUEVSSwEoEv3vAFQPZdIbA1gSF7Y4tjys4tGhsSo5ygigRWIvBWEfGaDV4EZJ+z7wqBrQkM2RtbHFN2btHYkBjlBFUksCKB/7bBC4Dss0JgiwJD9sYWx5StWzQ2JEY5QRUJrEjgIzd4AZB9VghsUWDI3tjimLJ1i8aGxCgnqCKBFQncHhEv2dBFQPY1+6wQ2KLAkL2xxTFl6xaNDYlRTlBFAisTeMKGLgCyrwqBrQoM2RtbHFP2btHYkBjlBFUksDKBd9rQBUD2VSGwVYEhe2OLY8reLRobEqOcoIoEVijwUxu4CMg+KgS2LDBkb2xxTNm8RWNDYpQTVJHACgU+YwMXANlHhcCWBYbsjS2OKZu3aGxIjHKCKhJYocB9IuIVK74IyL5lHxUCWxYYsje2OKZs3qKxITHKCapIYKUCP7jiC4Dsm0Jg6wJD9sYWx5TdWzQ2JEY5QRUJrFTgMSu+AMi+KQS2LjBkb2xxTNm9RWNDYpQTVJHASgXuGxF3rPAiIPuUfVMIbF1gyN7Y4piye4vGhsQoJ6gigRULPGOFFwDZJ4UAgfk+frtsP2TzbnFMOUEVCaxY4J+s8AIg+6QQIOACIPZdLBgcBAhE3C8iXrmii4DsS/ZJIUDABYALALOAwDUCz1zRBUD2RSFA4E6Bff8BHvvxsv/YieyLX05QRQIrF/jkFV0AZF8UAgTuFNi3/439eNl/7ET2xS8nqCKBlQu8cUT81QouArIP2ReFAIE7Bfbtf2M/XvYfO5F98csJqkhgAwI/soILgOyDQoDAXQL79r+xH78rg2u+GzuRffGvScvTBDYl8M9WcAGQfVAIELhLYN/+N/bjd2VwzXdjJ7Iv/jVpeZrApgTeYQUXANkHhQCBuwT27X9jP35XBtd8N3Yi++Jfk5anCWxO4HcWfBGQuSsECNwssG//G/vxm7M48NPYieyLfyAlTxHYpMA3L/gCIHNXCBC4WWDf/jf24zdnceCnsRPZF/9ASp4isEmBj1rwBUDmrhAgcLPAvv1v7MdvzuLAT2Mnsi/+gZQ8RWCTAvkWulcv8CIgc/b2v00OWZ2+RmDf/jf249ekddfTYyeyL/5dGfiOAIGdwP9a4AVA5qwQIHCrwL79b+zHb81kzyNjJ7Iv/p50PExg0wJfusALgMxZIUDgVoF9+9/Yj9+ayZ5Hxk5kX/w96XiYwKYF3nOBFwCZs0KAwK0C+/a/sR+/NZM9j4ydyL74e9LxMIFNC9wtIv7fgi4CMtfMWSFA4FaBffvf2I/fmsmeR8ZOZF/8Pel4mMDmBZ62oAuAzFUhQOBqgX3739iPX53NFY+Onci++Fek4iECBCLi8xd0AZC5KgQIXC2wb/8b+/Grs7ni0bET2Rf/ilQ8RIBARLzPgi4AMleFAIGrBfbtf2M/fnU2Vzw6diL74l+RiocIEIiIey7k44Hz438zV4UAgasF9u1/Yz9+dTZXPDp2IvviX5GKhwgQOBd4/gJ+C5A5KgQI7BfYt/+N/fj+jC49M3Yi++JfSsOPBAhcEPiPC7gAyBwVAgT2C+zb/8Z+fH9Gl54ZO5F98S+l4UcCBC4IfOwCLgAyR4UAgf0C+/a/sR/fn9GlZ8ZOZF/8S2n4kQCBCwJvs4ALgMxRIUBgv8C+/W/sx/dndOmZsRPZF/9SGn4kQOCSwAs7vgjI3BQCBA4L7Nv/xn78cFYXnh07kX3xL6TgWwIErhD4vo4vADI3hQCBwwL79r+xHz+c1YVnx05kX/wLKfiWAIErBP5lxxcAmZtCgMBhgX3739iPH87qwrNjJ7Iv/oUUfEuAwBUC79fxBUDmphAgcFhg3/439uOHs7rw7NiJ7It/IQXfEiBwhcD9O74AyNwUAgQOC+zb/8Z+/HBWF54dO5F98S+k4FsCBPYIvKjDi4DMSSFA4HqBffvf2I9fn9l5jbET2Re/nKCKBDYs8KMdXgBkTgoBAtcL7Nv/xn78+szOa4ydyL745QRVJLBhgSd2eAGQOSkECFwvsG//G/vx6zM7rzF2IvvilxNUkcCGBT61wwuAT9nw+dB1AscI7Nv/xn68nOPYieyLX05QRQIbFvi7HV4AZE4KAQLXC+zb/8Z+/PrMzmuMnci++OUEVSSwYYF7RcRrO7oIyFwyJ4UAgesF9u1/Yz9+fWbnNcZOZF/8coIqEti4wAs6ugDIXBQCBGoC+/a/sR+vZTfjwlJOUEUCGxd4+ozz9PJClbkoBAjUBC7Pn6l+rmU348JSTlBFAhsXeNyM8/TygpW5KAQI1AQuz5+pfq5lN+PCUk5QRQIbF/jkGefp5QUrc1EIEKgJXJ4/U/1cy27GhaWcoIoENi7wATPO08sLVuaiECBQE7g8f6b6uZbdjAtLOUEVCWxc4G/OOE8vL1iZi0KAQE3g8vyZ6udadjMuLOUEVSSwcYHbI+I1M87V3aKVOWQuCgECNYHd3Jn6ay27GReVcoIqEiAQvz/jXN0tXpmDQoBAXWA3d6b+Ws5w6sR27ZUTVJEAgXhuBxcAmYNCgEBdYLffTf21nOHUie3aKyeoIgEC8d0dXABkDgoBAnWB3X439ddyhlMntmuvnKCKBAjEV3RwAZA5KAQI1AV2+93UX8sZTp3Yrr1ygioSIBCf2cEFQOagECBQF9jtd1N/LWc4dWK79soJqkiAQHxwBxcAmYNCgEBdYLffTf21nOHUie3aKyeoIgEC8Y4dXABkDgoBAnWB3X439ddyhlMntmuvnKCKBAjE/Tq4AMgcFAIE6gK7/W7qr+UMp05s1145QRUJELgh8KoZLwKybYUAgeMEdvvd1F/LWU6d2K69coIqEiBwQ+AlM14AZNsKAQLHCez2u6m/lrOcOrFde+UEVSRA4IbAr814AZBtKwQIHCew2++m/lrOcurEdu2VE1SRAIEbAs+b8QIg21YIEDhOYLffTf21nOXUie3aKyeoIgECNwSeMeMFQLatECBwnMBuv5v6aznLqRPbtVdOUEUCBG4IfNuMFwDZtkKAwHECu/1u6q/lLKdObNdeOUEVCRC4IfCEGS8Asm2FAIHjBHb73dRfy1lOndiuvXKCKhIgcEPgi2e8AMi2FQIEjhPY7XdTfy1nOXViu/bKCapIgMANgc+a8QIg21YIEDhOYLffTf21nOXUie3aKyeoIgECNwQ+esYLgGxbIUDgOIHdfjf113KWUye2a6+coIoECNwQmPMDgXwQkEFI4HiB3X439ddyplMntmuvnKCKBAjcEPh7M/4GINtWCBA4TmC33039tZzl1Int2isnqCIBAjcE3mvGC4BsWyFA4DiB3X439ddyllMntmuvnKCKBAjcEHi3GS8Asm2FAIHjBHb73dRfy1lOndiuvXKCKhIgcEPgoTNeAGTbCgECxwns9rupv5aznDqxXXvlBFUkQOCGwN+a8QIg21YIEDhOYLffTf21nOXUie3aKyeoIgECNwT+xowXANm2QoDAcQK7/W7qr+Usp05s1145QRUJELgh8JYzXgBk2woBAscJ7Pa7qb+Ws5w6sV175QRVJEDghsADZrwAyLYVAgSOE9jtd1N/LWc5dWK79soJqkiAwA2Be894AZBtKwQIHCew2++m/lrOcurEdu2VE1SRAIEbAveY8QIg21YIEDhOYLffTf21nOWjI2KOf+UEVSRA4PUCc8zVbFMhQOB4AfP1eDNHECBAgAABAgQIECBAgAABAgQIECBAgAABAgQIECBAgAABAgQIECBAgAABAgQIECBAgAABAgQIECBAgAABAgQIECBAgAABAgQIECBAgAABAgQIECBAgAABAgQIECBAgAABAgQIECBAgAABAgQIECBAgAABAgQIECBAgAABAgQIECBAgAABAgQIECBAgAABAgQIECBAgAABAgQIECBAgAABAgQIECBAgACBuQXuFhEPjIi/ExEfdv4vv8/H8jmFAAECBAgQOF6gy/31IRHxxRHx0xHx6oj46z3/8rmsk3XzGIUAAQIECBDYL9Dl/npbRHxiRPzans1+30XAxcfz2IyRsRQCBAgQIEDgzj2x2/31QyPiF07Y+C9eBOT3GStjKgQIECBAYMsC3e6vbxgRT2248V++EMjY2YZCgAABAgS2JND1/vrWZy/o+9kRN//dxUC2kW0pBAgQIEBgCwJd768Pi4gXT7D57y4Csq1sUyFAgAABAmsW6Hp/fbOI+N0JN//dRUC2mW0rBAgQIEBgjQJd76/3iIifmGHz310EZNuZg0KAAAECBNYk0P3++rUzbv67i4DMQSFAgAABAmsS6Hp/fadrbuqz26DH/po3D8pcFAIECBAgsAaB7vfXp3fwv//dxUXmohAgQIAAgTUIdL2/vm9Hm//uIiBzUggQIECAwJIFut9fv7PDC4DMSSFAgAABAksW6Hp/vXtEvLTDC4DMKXNTCBAgQIDAEgW6318/oMPNf/dngMxNIUCAAAECSxTofn/9Dx1fAGRuCgECBAgQWKJA9/vrD3Z8AZC5KQQIECBAYIkC3e+vz+/4AiBzUwgQIECAwBIFut9fX9jxBUDmphAgQIAAgSUKdL+/vrLjC4DMTSFAgAABAksU6H5//aOOLwAyN4UAAQIECCxRoPv99Rc7vgDI3BQCBAgQILBEge7312d1fAGQuSkECBAgQGCJAt3vr0/q+AIgc1MIECBAgMASBbrfXz++4wuAzE0hQIAAAQJLFOh+f71fRLyqw4uAzClzUwgQIECAwBIFFrG/PrvDC4AfW+LZljMBAgQIELgg0P3++mkdXgBkTgoBAgQIEFiyQPf76+0R8RsdXQRkLpmTQoAAAQIEliywiP31UR1dAGQuCgECBAgQWIPAIvbX/93BRUDmoBAgQIAAgTUJdL+/PjgiXjrjRUC2nTkoBAgQIEBgTQKL2F8/MCJePcNFQLaZbSsECBAgQGCNAovYXz9nhguAbFMhQIAAAQJrFljE/voJEXHHBBcC2Ua2pRAgQIAAgS0ILGJ/ffeIeNGIFwEZO9tQCBAgQIDAlgQWsb++ZUQ8JSJe2/BCIGNlzIytECBAgACBLQosZn992Nn/1n+4wUVAxshYCgECBAgQIHDnnriI/TU3738XET93xMVA1s1jbPyGOgECBAgQuFpgUfvrW0fEP4qIfxoRXxYRTz7/l9/nY/lc1lEIECBAgACBuoD9tW6lJgECBAgQIECAAAECBAgQIECAAAECBAgQIECAAAECBAgQIECAAAECBAgQIECAAAECBAgQIECAAAECBAgQIECAAAECBAgQIECAAAECBAgQIECAAAECBAgQIECAAAECBAgQIECAAAECBAgQIECAAAECBAgQIECAAAECBAgQIECAAAECBAgQIECAAAECBAgQIECAAAECBAgQIECAAAECBAgQIECAAAECBAgQIECAAAECBAgQIECAAAECBAgQIECAAAECBAgQIECAAAECBAgQIECAAAECBAgQIECAAAECBAgQIECAAAECBAgQIECAAAECBAgQIECAAAECBAgQIECAAAECBAgQIECAAAECBAgQIECAAAECBAgQIECAAAECBAgQIECAAAECBAgQIECAAAECBAgQIECAAAECBAgQIECAAAECBAgQIECAAAECBAgQIECAAAECBAgQIECAAAECBAgQIECAAAECBAgQIECAAAECBAgQIECAAAECBAgQIECAAAECBAgQIECAAAECBAgQIECAAAECBAgQIECAAAECBAgQIECAAAECBAgQIECAAAECBAgQIECAAAECBAgQIECAAAECBAgQIECAAAECBAgQIECAAAECBAgQIECAAAECBAgQIECAAAECBAgQIECAAAECBAgQIECAAAECBAgQIECAAAECBAgQIECAAAECBAgQIECAAAECBAgQIECAAAECBAgQIECAAAECBAgQIECAAAECBAgQIECAAAECBAgQIECAAAECBAgQIECAAAECBAgQIECAAAECBAgQIECAAAECBAgQIECAAAECBAgQIECAAAECBAgQIECAAAECBAgQIECAAAECBAgQIECAAAECBAgQIECAAAECBAgQIECAAAECBAgQIECAAAECBAgQIECAAAECBAgQIECAAAECBAgQIECAAAECBAgQIECAAAECBAgQIECAAAECBAgQIECAAAECBAgQIECAAAECBAgQIECAAAECBAgQIECAAAECBAgQIECAAAECBAgQIECAAAECBAgQIECAAAECBAgQIECAAAECBAgQIECAAAECBAgQIECAAAECBAgQIECAAAECBAgQIECAAAECBAgQIECAAAECBAgQIECAAAECBAgQIECAAAECBAgQIECAAAECBAgQIECAAAECBAgQIECAQBcC/x/9xECiG3YxSQAAAABJRU5ErkJggg==;rotation=90;" vertex="1" parent="AuNbkqGXITy0RywER_eL-14">
          <mxGeometry x="-10" y="70" width="50" height="50" as="geometry" />
        </mxCell>
        <mxCell id="AuNbkqGXITy0RywER_eL-18" value="" style="rounded=0;whiteSpace=wrap;html=1;fillColor=#000000;" vertex="1" parent="1">
          <mxGeometry x="25" y="810" width="170" height="30" as="geometry" />
        </mxCell>
      </root>
    </mxGraphModel>
  </diagram>
</mxfile>
